# xmcd
# 
# Track frame offsets:
#     150
#     22415
#     39195
#     57370
#     76037
#     91490
#     113872
#     131967
#     147757
#     162555
#     177467
#     192792
#     208695
#     222907
#     237905
#     252612
#     269660
#     285380
# 
# Disc length: 4082
# 
# Revision: 1
# Processed by: cddbd v1.5.2PL0 Copyright (c) Steve Scherf et al.
# Submitted via: BonkEnc v1.0.6
# 
DISCID=150ff012
DTITLE=Gatinha Manhosa Ao Vivo - Ao Vivo
DYEAR=2005
DGENRE=Forró
TTITLE0=Dose Dupla
TTITLE1=Isso é Imortal
TTITLE2=Se você quiser voltar
TTITLE3=Pense
TTITLE4=Me Jogou Fora
TTITLE5=Vivendo de Solidão
TTITLE6=Adeus Nunca Mais
TTITLE7=Sonho Real
TTITLE8=Cara a Cara
TTITLE9=Tecle Enter
TTITLE10=Sei que Vai Voltar
TTITLE11=Sai de mim Tristeza
TTITLE12=120...130...Tenho pressa de Chegar
TTITLE13=Amor ou Amizada
TTITLE14=Quando você Chegar
TTITLE15=Coisas do Coração
TTITLE16=Destino
TTITLE17=Leilão
EXTD=Neldvd
EXTT0=
EXTT1=
EXTT2=
EXTT3=
EXTT4=
EXTT5=
EXTT6=
EXTT7=
EXTT8=
EXTT9=
EXTT10=
EXTT11=
EXTT12=
EXTT13=
EXTT14=
EXTT15=
EXTT16=
EXTT17=
PLAYORDER=
